<svg xmlns="http://www.w3.org/2000/svg" xmlns:xlink="http://www.w3.org/1999/xlink" width="80" height="80" viewBox="0 0 80 80">
    <g fill="#000000">
        <path d="M30,59C27.794,59,26,60.794,26,63C26,65.206,27.794,67,30,67C32.206,67,34,65.206,34,63C34,60.794,32.206,59,30,59zM30,65C28.897,65,28,64.103,28,63C28,61.897,28.897,61,30,61C31.103,61,32,61.897,32,63C32,64.103,31.103,65,30,65z" fill="#404040" transform="translate(1,0)"/>
        <path d="M66,22L48,22L48,14.405C48,11.977,46.024,10,43.595,10L18.405,10C15.976,10,14,11.977,14,14.405L14,65.594C14,68.023,15.976,70,18.405,70L43.594,70C46.024,70,48,68.023,48,65.595L48,43L66,43L66,22ZM18.405,12L43.594,12C44.921,12,46,13.079,46,14.405L46,16L16,16L16,14.405C16,13.079,17.079,12,18.405,12zM43.595,68L18.405,68C17.079,68,16,66.921,16,65.595L16,58L46,58L46,65.595C46,66.921,44.921,68,43.595,68zM46,56L16,56L16,18L46,18L46,22L28,22L28,43L32,43L32,50L41.333,43L46,43L46,56ZM64,41L48,41L40.667,41L34,46L34,41L30,41L30,24L48,24L64,24L64,41Z" fill="#404040"/>
        <path id="long line" fill="#404040" d="M34,35C34,35.553,34.448,36,35,36L35,36C35.552,36,36,35.553,36,35C36,34.447,35.552,34,35,34L35,34C34.448,34,34,34.447,34,35z" opacity="0" transform="translate(34,35) translate(-34,-35)"/>
        <path id="short line" fill="#404040" d="M35,31L35,31C35.552,31,36,30.553,36,30C36,29.447,35.552,29,35,29L35,29C34.448,29,34,29.447,34,30C34,30.553,34.448,31,35,31z" opacity="0" transform="translate(34,30) translate(-34,-30)"/>
    </g>
    <script><![CDATA[var q="- translate translate - scale scale - skewX skewY - - - rotate".split(" "),F="url blur brightness contrast drop-shadow grayscale hue-rotate invert opacity saturate sepia".split(" "),G=function(){function y(){if(!1!==n)g=n;else{var b=(new Date).getTime();0>t&&(t=b);g=(b-t+z)*m}p&&(g>l.end&&(g=l.end),0>g&&(g=0));for(var a,b=u.length,e=0;e<b;++e){for(var d=u[e],c="",H=l.anims[e].length,A=0;A<H;++A){var h=l.anims[e][A],k=h[0];if(h[3]){a=h[2];var f=h[4].length,v=h[4][f-1];a=g<=a?h[5][0]:Infinity!=
h[3]&&g>=a+h[3]?0!=v&&h[3]%v?C(h[3]%v,h):h[5][f-1]:C((g-a)%v,h)}else a=h[2];0===k?(a=a*h[9]/100,k=h[7].getPointAtLength(a),c+="translate("+k.x+","+k.y+") ",h[10]&&(a?a=h[7].getPointAtLength(a-.5):(a=k,k=h[7].getPointAtLength(.5)),c+="rotate("+180*Math.atan2(k.y-a.y,k.x-a.x)/Math.PI+") ")):12>=k?(h=q[k]+"(",h=4>k?h+(1==k?a+",0":"0,"+a):7>k?h+(4==k?a+",1":"1,"+a):h+a,c+=h+") "):(a=I(h[8]&240,a),h=h[8]&15,1==h?d.setAttribute(k,a):!h&&(d.style[k]=a))}""!=c&&d.setAttribute("transform",c)}G.b&&G.b(g);p&&
(0<=m&&g<l.end||0>m&&0<g?w(y):(G.a&&G.a(),n=g,p=!1))}function x(b){return 0<=b?Math.pow(b,1/3):-Math.pow(-b,1/3)}function J(b,a,e,d){if(0==b)return 0==a?a=-d/e:(b=Math.sqrt(e*e-4*a*d),d=(-e+b)/(2*a),0<=d&&1>=d?a=d:(d=(-e-b)/(2*a),a=0<=d&&1>=d?d:0)),a;var c=e/b-a*a/(b*b)/3;e=a*a*a/(b*b*b)/13.5-a*e/(b*b)/3+d/b;var g=e*e/4+c*c*c/27;a=-a/(3*b);if(0>=g)if(c||e){b=Math.sqrt(e*e/4-g);d=Math.acos(-e/2/b);e=Math.cos(d/3);d=Math.sqrt(3)*Math.sin(d/3);b=x(b);c=2*b*e+a;if(0<=c&&1>=c)return c;c=-b*(e+d)+a;if(0<=
c&&1>=c)return c;c=b*(d-e)+a;if(0<=c&&1>=c)return c}else return-x(d/b);else{b=x(-e/2+Math.sqrt(g));e=x(-e/2-Math.sqrt(g));d=b+e+a;if(0<=d&&1>=d)return d;d=-(b+e)/2+a;if(0<=d&&1>=d)return d}return 0}function I(b,a){if(32==b&&"number"===typeof a)return"#"+("000000"+a.toString(16)).substr(-6);if(48==b)return a.join(",");if(80==b){for(var e="",d=a.length,c=0;c<d;)if("M"==a[c])e+="M"+a[c+1]+","+a[c+2],c+=3;else if("L"==a[c])e+="L"+a[c+1]+","+a[c+2],c+=3;else if("C"==a[c])e+="C"+a[c+1]+","+a[c+2]+","+a[c+
3]+","+a[c+4]+","+a[c+5]+","+a[c+6],c+=7;else if("Z"==a[c])e+="Z",c+=1;else break;return e}if(64==b){if(99==a[0])return"none";e="";d=a.length;for(c=0;c<d;)e+=F[a[c]],0==a[c]?e+="("+a[c+1]+") ":4==a[c]?(e+="("+a[c+1]+"px "+a[c+2]+"px "+a[c+3]+"px #"+("00000000"+a[c+4].toString(16)).substr(-8)+") ",c+=3):e=1==a[c]?e+("("+a[c+1]+"px) "):6==a[c]?e+("("+a[c+1]+"deg) "):e+("("+(0>a[c+1]?0:a[c+1])+") "),c+=2;return e}return a}function r(b){return 0>=b?0:255<=b?255:b}function K(b,a,e,d){if(0==b)return(e-
a)*d+a;if(16==b)return 1>d?a:e;if(32==b){if("number"===typeof a&&"number"===typeof e){var c=1-d,g,l,h;return r(c*(a>>16)+d*(e>>16))<<16|r(c*(a>>8&255)+d*(e>>8&255))<<8|r(c*(a&255)+d*(e&255))}return 1>d?a:e}if(48==b){0==a.length&&(a=[0]);0==e.length&&(e=[0]);b=a.length;a.length!=e.length&&(b=a.length*e.length);for(var k=Array(b),f=0;f<b;++f)c=a[f%a.length],g=(e[f%e.length]-c)*d+c,0>g&&(g=0),k[f]=g;return k}if(80==b){if(a.length!=e.length)return.5>d?a:e;b=a.length;k=[];for(f=0;f<b;++f)if("string"===
typeof a[f]||"string"==typeof e[f]){if(a[f]!==e[f])return.5>d?a:e;k[f]=a[f]}else k[f]=(e[f]-a[f])*d+a[f];return k}if(64==b){b=a.length;if(b!=e.length)return a;k=Array(b);for(f=0;f<b;){if(a[f]!=e[f]||0==a[f])return a;k[f]=a[f];k[f+1]=(e[f+1]-a[f+1])*d+a[f+1];if(4==a[f]){k[f+2]=(e[f+2]-a[f+2])*d+a[f+2];k[f+3]=(e[f+3]-a[f+3])*d+a[f+3];var c=1-d,m=a[f+4],n=e[f+4];g=c*(m>>>24)+d*(n>>>24);l=c*(m>>16&255)+d*(n>>16&255);h=c*(m>>8&255)+d*(n>>8&255);k[f+4]=(r(l)<<16|r(h)<<8|r(c*(m&255)+d*(n&255)))+16777216*
(r(g)|0);f+=3}f+=2}return k}return 0}function C(b,a){var e;a:{e=a[4].length;for(var d=0;d<e;++d)if(b<a[4][d]){e=d;break a}--e}d=a[4][e-1];d=(b-d)/(a[4][e]-d);if(a[6]&&a[6].length>e-1){var c=a[6][e-1];if(0<=c[0])if(0>=d)d=0;else if(1<=d)d=1;else var g=c[0],l=c[2],d=J(3*g-3*l+1,-6*g+3*l,3*g,-d),d=3*d*(1-d)*(1-d)*c[1]+3*d*d*(1-d)*c[3]+d*d*d;else-1!=c[0]&&(-2==c[0]?(c=c[1],d=Math.ceil(d*c)/c):-3==c[0]&&(c=c[1],d=Math.floor(d*c)/c))}return K(a[8]&240,a[5][e-1],a[5][e],d)}function D(b){p=!0;0!=m&&(z=b/
m,n=!1);t=-1;w(y)}function E(b){g=b;!1!==n?B||p||0==m?n=g:D(g):z=g/m-((new Date).getTime()-(0>t?(new Date).getTime():t));y()}var w=window.requestAnimationFrame||window.webkitRequestAnimationFrame||window.mozRequestAnimationFrame||window.oRequestAnimationFrame||window.msRequestAnimationFrame||null;w||(w=function(b){window.setTimeout(b,16)});var g=0,t=-1,z=0,B=!0,n=0,p=!1,m=1,l,u=[],L={stroke:32,fill:32,strokeDasharray:48,filter:64,width:1,height:1,d:81};return{play:function(b){"undefined"!==typeof b&&
E(b);B=!1;p||(b=n,0<m&&(0>b||b>=l.end)?b=0:0>m&&(0>=b||b>l.end)&&(b=l.end),D(b));return G},pause:function(b){"undefined"!==typeof b&&E(b);B=!0;p&&(p=!1,n=g);return G},_set_data:function(b){l=b;u=[];for(b=0;b<l.targets.length;++b)u[b]=document.getElementById(l.targets[b]);l.anims.forEach(function(a){if(0==a[0][0]){var b=document.createElementNS("http://www.w3.org/2000/svg","path");b.setAttribute("d",a[0][7]);a[0][10]=" "==a[0][7].charAt(0);a[0][9]=b.getTotalLength();a[0][7]=b}a.forEach(function(a){a[8]=
L[a[0]];a[8]||(a[8]=0)})})}}}();window.ks=G;
document.ks=ks;ks._data={targets:['long line','short line'],
anims:[[['opacity',0,0,Infinity,[0,600,800,3000],[0,0,1,1],[[0.42,0,1,1],[0.42,0,0.58,1],[0,0,0.58,1],[-1]]],['d',0,0,Infinity,[0,600,800,1200,3000],[['M',34,35,'C',34,35.553,34.448,36,35,36,'L',35,36,'C',35.552,36,36,35.553,36,35,'C',36,34.447,35.552,34,35,34,'L',35,34,'C',34.448,34,34,34.447,34,35,'Z'],['M',34,35,'C',34,35.553,34.448,36,35,36,'L',35,36,'C',35.552,36,36,35.553,36,35,'C',36,34.447,35.552,34,35,34,'L',35,34,'C',34.448,34,34,34.447,34,35,'Z'],['M',34,35,'C',34,35.553,34.448,36,35,36,'L',35,36,'C',35.552,36,36,35.553,36,35,'C',36,34.447,35.552,34,35,34,'L',35,34,'C',34.448,34,34,34.447,34,35,'Z'],['M',34,35,'C',34,35.553,34.448,36,35,36,'L',59,36,'C',59.552,36,60,35.553,60,35,'C',60,34.447,59.552,34,59,34,'L',35,34,'C',34.448,34,34,34.447,34,35,'Z'],['M',34,35,'C',34,35.553,34.448,36,35,36,'L',59,36,'C',59.552,36,60,35.553,60,35,'C',60,34.447,59.552,34,59,34,'L',35,34,'C',34.448,34,34,34.447,34,35,'Z']],[[0.42,0,1,1],[0.42,0,0.58,1],[0.42,0,0.58,1],[0,0,0.58,1],[-1]]]],
[['opacity',0,0,Infinity,[0,200,3000],[0,1,1],[[0.42,0,0.58,1],[0,0,0.58,1],[-1]]],['d',0,0,Infinity,[0,200,600,3000],[['M',35,31,'L',35,31,'C',35.552,31,36,30.553,36,30,'C',36,29.447,35.552,29,35,29,'L',35,29,'C',34.448,29,34,29.447,34,30,'C',34,30.553,34.448,31,35,31,'Z'],['M',35,31,'L',35,31,'C',35.552,31,36,30.553,36,30,'C',36,29.447,35.552,29,35,29,'L',35,29,'C',34.448,29,34,29.447,34,30,'C',34,30.553,34.448,31,35,31,'Z'],['M',35,31,'L',45,31,'C',45.552,31,46,30.553,46,30,'C',46,29.447,45.552,29,45,29,'L',35,29,'C',34.448,29,34,29.447,34,30,'C',34,30.553,34.448,31,35,31,'Z'],['M',35,31,'L',45,31,'C',45.552,31,46,30.553,46,30,'C',46,29.447,45.552,29,45,29,'L',35,29,'C',34.448,29,34,29.447,34,30,'C',34,30.553,34.448,31,35,31,'Z']],[[0.42,0,0.58,1],[0.42,0,0.58,1],[0,0,0.58,1],[-1]]]]],
end:Infinity};ks._set_data(ks._data);var hr=document.location.href.split('?');(2>hr.length||-1==hr[1].split('&').indexOf('playState=paused'))&&ks.play();]]></script>
</svg>
