<svg xmlns="http://www.w3.org/2000/svg" xmlns:xlink="http://www.w3.org/1999/xlink" width="80" height="80" viewBox="0 0 80 80">
    <g fill="none" transform="translate(40,40) translate(-40,-40)">
        <g id="sunny-light" transform="translate(40,40) translate(-29,-29)">
            <g id="animated-rays-light" opacity="0" transform="translate(29,29) translate(-29,-29)">
                <path id="rayonce-light" stroke="#efefef" stroke-width="2" d="M1.58698,2.0692C1.12954,2.33329,0.972788,2.9183,1.23687,3.37573L3.19347,6.76449C3.45756,7.22196,4.0427,7.37863,4.50001,7.11455C4.95745,6.85046,5.1142,6.26545,4.8501,5.808L4.85012,5.80802L2.89354,2.41929C2.62942,1.9618,2.04443,1.80504,1.58698,2.0692z" stroke-linecap="round" stroke-linejoin="round" stroke-dasharray="14 14" stroke-dashoffset="0" transform="translate(40.1655,49.0975) translate(-1.16554,-2.09745)"/>
                <path id="raydiez-light" stroke="#efefef" stroke-width="2" d="M2.06931,1.58698C1.80521,2.04443,1.96197,2.62944,2.41943,2.89355L5.80822,4.85016C6.2655,5.11424,6.85052,4.95758,7.11467,4.50001C7.37877,4.04256,7.22202,3.45755,6.76458,3.19345L6.76455,3.19344L3.37576,1.23682C2.9183,0.97264,2.33348,1.12937,2.06931,1.58698z" stroke-linecap="round" stroke-linejoin="round" stroke-dasharray="14 14" stroke-dashoffset="0" transform="translate(48.7666,40.4963) translate(-1.76664,-1.49635)"/>
                <path id="raynueve-light" stroke="#efefef" stroke-width="2" d="M1.17387,2C1.17387,2.5283,1.60213,2.95656,2.13043,2.95656L6.04344,2.95656C6.57167,2.95656,7,2.52825,7,2C7,1.4717,6.57174,1.04344,6.04344,1.04344L2.13043,1.04344C1.6022,1.04344,1.17387,1.47175,1.17387,2z" stroke-linecap="round" stroke-linejoin="round" stroke-dasharray="14 14" stroke-dashoffset="0" transform="translate(52.0748,28.8077) translate(-1.07476,-1.80767)"/>
                <path id="rayocho-light" stroke="#efefef" stroke-width="2" d="M2.06933,4.41304C2.33342,4.87051,2.91856,5.02718,3.37584,4.76313L6.76458,2.80655C7.22202,2.54245,7.37877,1.95744,7.11467,1.49999C6.85054,1.04248,6.26563,0.885733,5.80814,1.14988L2.4194,3.10646C1.96197,3.37056,1.80521,3.95557,2.06933,4.41304z" stroke-dasharray="14 14" stroke-dashoffset="0" stroke-linecap="round" stroke-linejoin="round" transform="translate(48.9872,17.5601) translate(-1.98718,-4.56007)"/>
                <path id="raysiete-light" stroke="#efefef" stroke-width="2" d="M1.58709,6.93075C2.04441,7.19485,2.62939,7.03822,2.89355,6.58057L4.85013,3.19184C5.1142,2.7345,4.95744,2.14947,4.49993,1.88528L4.4999,1.88526C4.04249,1.62111,3.45761,1.77787,3.19344,2.23545L1.23689,5.62413C0.972788,6.08158,1.12954,6.66659,1.58709,6.93075z" stroke-linecap="round" stroke-linejoin="round" stroke-dasharray="14 14" stroke-dashoffset="0" transform="translate(40.3568,8.84421) translate(-1.3568,-6.84421)"/>
                <path id="rayseis-light" stroke="#efefef" stroke-width="2" d="M2,6.82613C2.5283,6.82613,2.95656,6.39787,2.95656,5.86957L2.95656,1.95656C2.95656,1.42831,2.52823,1,2,1C1.47177,1,1.04344,1.42831,1.04344,1.95656L1.04344,5.86957C1.04344,6.3978,1.47175,6.82613,2,6.82613z" stroke-dasharray="14 14" stroke-linecap="round" stroke-linejoin="round" stroke-dashoffset="0" transform="translate(28.9179,5.98167) translate(-1.91794,-6.98167)"/>
                <path id="raycinco-light" stroke="#efefef" stroke-width="2" d="M4.41302,6.93069C4.87046,6.66659,5.02721,6.08158,4.76311,5.62413L4.76313,5.62416L2.80655,2.23542C2.54243,1.77794,1.95744,1.62117,1.49999,1.88533C1.04255,2.14942,0.885796,2.73443,1.14988,3.19186L3.10648,6.58062C3.3706,7.03814,3.95571,7.19482,4.41302,6.93069z" stroke-linecap="round" stroke-linejoin="round" stroke-dasharray="14 14" stroke-dashoffset="0" transform="translate(17.119,8.29735) translate(-4.11899,-6.29735)"/>
                <path id="rayquatro-light" stroke="#efefef" stroke-width="2" d="M6.93076,4.4131C6.66665,4.87058,6.08163,5.02725,5.62435,4.76317L2.23556,2.80656C1.7781,2.54245,1.62134,1.95744,1.88545,1.49999C2.14954,1.04245,2.73448,0.885676,3.19189,1.14983L6.58069,3.10645L6.58071,3.10646C7.03811,3.37053,7.19485,3.95556,6.93076,4.4131z" stroke-linecap="round" stroke-linejoin="round" stroke-dasharray="14 14" stroke-dashoffset="0" transform="translate(8.62816,17.2293) translate(-6.62816,-4.22926)"/>
                <path id="raytres-light" stroke="#efefef" stroke-width="2" d="M6.82613,2C6.82613,2.52825,6.3978,2.95656,5.86957,2.95656L1.95656,2.95656C1.42831,2.95656,1,2.52823,1,2C1,1.47177,1.42831,1.04344,1.95656,1.04344L5.86957,1.04344C6.3978,1.04344,6.82613,1.47175,6.82613,2z" stroke-linecap="round" stroke-linejoin="round" stroke-dasharray="14 14" stroke-dashoffset="0" transform="translate(6.31248,28.8077) translate(-7.31248,-1.80767)"/>
                <path id="raydos-light" stroke="#efefef" stroke-width="2" d="M6.93069,1.58698L6.93064,1.5869C6.66666,1.12955,6.08159,0.972787,5.62416,1.23687L2.23542,3.19345C1.77798,3.45755,1.62123,4.04256,1.88534,4.50004C2.14944,4.95751,2.73457,5.11417,3.19186,4.85012L6.58064,2.89351C7.0381,2.62944,7.19482,2.04449,6.93069,1.58698z" stroke-linecap="round" stroke-linejoin="round" stroke-dasharray="14 14" stroke-dashoffset="0" transform="translate(9.17951,40.0553) translate(-7.17951,-1.05527)"/>
                <path id="rayuno-light" stroke="#efefef" stroke-width="2" d="M4.41302,2.06931L4.41286,2.06922C3.95551,1.80507,3.37055,1.96182,3.10645,2.41943L1.1499,5.80811C0.885796,6.26557,1.04255,6.85058,1.5001,7.11473C1.95737,7.37881,2.5424,7.22215,2.80656,6.76455L4.76311,3.37587C5.02721,2.91842,4.87046,2.33341,4.41302,2.06931z" stroke-linecap="round" stroke-linejoin="round" stroke-dasharray="14 14" stroke-dashoffset="0" transform="translate(17.6,48.85) translate(-4.6,-1.85)"/>
                <path id="raydoce-light" stroke="#efefef" stroke-width="2" d="M2,1.17387C1.47177,1.17387,1.04344,1.60218,1.04344,2.13043L1.04344,6.04344C1.04344,6.57167,1.47175,7,2,7C2.5283,7,2.95656,6.57174,2.95656,6.04344L2.95656,2.13043C2.95656,1.60225,2.52818,1.17387,2,1.17387z" stroke-linecap="round" stroke-linejoin="round" stroke-dasharray="14 14" stroke-dashoffset="0" transform="translate(29.1385,51.8542) translate(-2.13848,-0.854215)"/>
            </g>
            <path id="nue-sun-circle-light" d="M40,22.7391C49.5168,22.7391,57.2609,30.4833,57.2609,40C57.2609,49.5167,49.5167,57.2609,40,57.2609C30.4833,57.2609,22.7391,49.5167,22.7391,40C22.7391,30.4833,30.4833,22.7391,40,22.7391zM40,55.3479C31.5363,55.3479,24.6521,48.4637,24.6521,40C24.6521,31.5363,31.5363,24.6521,40,24.6521C48.4636,24.6521,55.3479,31.5364,55.3479,40C55.3479,48.4637,48.4637,55.3479,40,55.3479z" fill="none" stroke="#efefef" stroke-width="2" stroke-dasharray="204 204" stroke-dashoffset="204" stroke-linecap="round" stroke-linejoin="round" transform="translate(-11,-11)"/>
        </g>
    </g>
    <script><![CDATA[var q="- translate translate - scale scale - skewX skewY - - - rotate".split(" "),F="url blur brightness contrast drop-shadow grayscale hue-rotate invert opacity saturate sepia".split(" "),G=function(){function y(){if(!1!==n)g=n;else{var b=(new Date).getTime();0>t&&(t=b);g=(b-t+z)*m}p&&(g>l.end&&(g=l.end),0>g&&(g=0));for(var a,b=u.length,e=0;e<b;++e){for(var d=u[e],c="",H=l.anims[e].length,A=0;A<H;++A){var h=l.anims[e][A],k=h[0];if(h[3]){a=h[2];var f=h[4].length,v=h[4][f-1];a=g<=a?h[5][0]:Infinity!=
h[3]&&g>=a+h[3]?0!=v&&h[3]%v?C(h[3]%v,h):h[5][f-1]:C((g-a)%v,h)}else a=h[2];0===k?(a=a*h[9]/100,k=h[7].getPointAtLength(a),c+="translate("+k.x+","+k.y+") ",h[10]&&(a?a=h[7].getPointAtLength(a-.5):(a=k,k=h[7].getPointAtLength(.5)),c+="rotate("+180*Math.atan2(k.y-a.y,k.x-a.x)/Math.PI+") ")):12>=k?(h=q[k]+"(",h=4>k?h+(1==k?a+",0":"0,"+a):7>k?h+(4==k?a+",1":"1,"+a):h+a,c+=h+") "):(a=I(h[8]&240,a),h=h[8]&15,1==h?d.setAttribute(k,a):!h&&(d.style[k]=a))}""!=c&&d.setAttribute("transform",c)}G.b&&G.b(g);p&&
(0<=m&&g<l.end||0>m&&0<g?w(y):(G.a&&G.a(),n=g,p=!1))}function x(b){return 0<=b?Math.pow(b,1/3):-Math.pow(-b,1/3)}function J(b,a,e,d){if(0==b)return 0==a?a=-d/e:(b=Math.sqrt(e*e-4*a*d),d=(-e+b)/(2*a),0<=d&&1>=d?a=d:(d=(-e-b)/(2*a),a=0<=d&&1>=d?d:0)),a;var c=e/b-a*a/(b*b)/3;e=a*a*a/(b*b*b)/13.5-a*e/(b*b)/3+d/b;var g=e*e/4+c*c*c/27;a=-a/(3*b);if(0>=g)if(c||e){b=Math.sqrt(e*e/4-g);d=Math.acos(-e/2/b);e=Math.cos(d/3);d=Math.sqrt(3)*Math.sin(d/3);b=x(b);c=2*b*e+a;if(0<=c&&1>=c)return c;c=-b*(e+d)+a;if(0<=
c&&1>=c)return c;c=b*(d-e)+a;if(0<=c&&1>=c)return c}else return-x(d/b);else{b=x(-e/2+Math.sqrt(g));e=x(-e/2-Math.sqrt(g));d=b+e+a;if(0<=d&&1>=d)return d;d=-(b+e)/2+a;if(0<=d&&1>=d)return d}return 0}function I(b,a){if(32==b&&"number"===typeof a)return"#"+("000000"+a.toString(16)).substr(-6);if(48==b)return a.join(",");if(80==b){for(var e="",d=a.length,c=0;c<d;)if("M"==a[c])e+="M"+a[c+1]+","+a[c+2],c+=3;else if("L"==a[c])e+="L"+a[c+1]+","+a[c+2],c+=3;else if("C"==a[c])e+="C"+a[c+1]+","+a[c+2]+","+a[c+
3]+","+a[c+4]+","+a[c+5]+","+a[c+6],c+=7;else if("Z"==a[c])e+="Z",c+=1;else break;return e}if(64==b){if(99==a[0])return"none";e="";d=a.length;for(c=0;c<d;)e+=F[a[c]],0==a[c]?e+="("+a[c+1]+") ":4==a[c]?(e+="("+a[c+1]+"px "+a[c+2]+"px "+a[c+3]+"px #"+("00000000"+a[c+4].toString(16)).substr(-8)+") ",c+=3):e=1==a[c]?e+("("+a[c+1]+"px) "):6==a[c]?e+("("+a[c+1]+"deg) "):e+("("+(0>a[c+1]?0:a[c+1])+") "),c+=2;return e}return a}function r(b){return 0>=b?0:255<=b?255:b}function K(b,a,e,d){if(0==b)return(e-
a)*d+a;if(16==b)return 1>d?a:e;if(32==b){if("number"===typeof a&&"number"===typeof e){var c=1-d,g,l,h;return r(c*(a>>16)+d*(e>>16))<<16|r(c*(a>>8&255)+d*(e>>8&255))<<8|r(c*(a&255)+d*(e&255))}return 1>d?a:e}if(48==b){0==a.length&&(a=[0]);0==e.length&&(e=[0]);b=a.length;a.length!=e.length&&(b=a.length*e.length);for(var k=Array(b),f=0;f<b;++f)c=a[f%a.length],g=(e[f%e.length]-c)*d+c,0>g&&(g=0),k[f]=g;return k}if(80==b){if(a.length!=e.length)return.5>d?a:e;b=a.length;k=[];for(f=0;f<b;++f)if("string"===
typeof a[f]||"string"==typeof e[f]){if(a[f]!==e[f])return.5>d?a:e;k[f]=a[f]}else k[f]=(e[f]-a[f])*d+a[f];return k}if(64==b){b=a.length;if(b!=e.length)return a;k=Array(b);for(f=0;f<b;){if(a[f]!=e[f]||0==a[f])return a;k[f]=a[f];k[f+1]=(e[f+1]-a[f+1])*d+a[f+1];if(4==a[f]){k[f+2]=(e[f+2]-a[f+2])*d+a[f+2];k[f+3]=(e[f+3]-a[f+3])*d+a[f+3];var c=1-d,m=a[f+4],n=e[f+4];g=c*(m>>>24)+d*(n>>>24);l=c*(m>>16&255)+d*(n>>16&255);h=c*(m>>8&255)+d*(n>>8&255);k[f+4]=(r(l)<<16|r(h)<<8|r(c*(m&255)+d*(n&255)))+16777216*
(r(g)|0);f+=3}f+=2}return k}return 0}function C(b,a){var e;a:{e=a[4].length;for(var d=0;d<e;++d)if(b<a[4][d]){e=d;break a}--e}d=a[4][e-1];d=(b-d)/(a[4][e]-d);if(a[6]&&a[6].length>e-1){var c=a[6][e-1];if(0<=c[0])if(0>=d)d=0;else if(1<=d)d=1;else var g=c[0],l=c[2],d=J(3*g-3*l+1,-6*g+3*l,3*g,-d),d=3*d*(1-d)*(1-d)*c[1]+3*d*d*(1-d)*c[3]+d*d*d;else-1!=c[0]&&(-2==c[0]?(c=c[1],d=Math.ceil(d*c)/c):-3==c[0]&&(c=c[1],d=Math.floor(d*c)/c))}return K(a[8]&240,a[5][e-1],a[5][e],d)}function D(b){p=!0;0!=m&&(z=b/
m,n=!1);t=-1;w(y)}function E(b){g=b;!1!==n?B||p||0==m?n=g:D(g):z=g/m-((new Date).getTime()-(0>t?(new Date).getTime():t));y()}var w=window.requestAnimationFrame||window.webkitRequestAnimationFrame||window.mozRequestAnimationFrame||window.oRequestAnimationFrame||window.msRequestAnimationFrame||null;w||(w=function(b){window.setTimeout(b,16)});var g=0,t=-1,z=0,B=!0,n=0,p=!1,m=1,l,u=[],L={stroke:32,fill:32,strokeDasharray:48,filter:64,width:1,height:1,d:81};return{play:function(b){"undefined"!==typeof b&&
E(b);B=!1;p||(b=n,0<m&&(0>b||b>=l.end)?b=0:0>m&&(0>=b||b>l.end)&&(b=l.end),D(b));return G},pause:function(b){"undefined"!==typeof b&&E(b);B=!0;p&&(p=!1,n=g);return G},_set_data:function(b){l=b;u=[];for(b=0;b<l.targets.length;++b)u[b]=document.getElementById(l.targets[b]);l.anims.forEach(function(a){if(0==a[0][0]){var b=document.createElementNS("http://www.w3.org/2000/svg","path");b.setAttribute("d",a[0][7]);a[0][10]=" "==a[0][7].charAt(0);a[0][9]=b.getTotalLength();a[0][7]=b}a.forEach(function(a){a[8]=
L[a[0]];a[8]||(a[8]=0)})})}}}();window.ks=G;
document.ks=ks;ks._data={targets:['sunny-light','animated-rays-light','rayonce-light','raydiez-light','raynueve-light','rayocho-light','raysiete-light','rayseis-light','raycinco-light','rayquatro-light','raytres-light','raydos-light','rayuno-light','raydoce-light','nue-sun-circle-light'],
anims:[[[1,0,40],[2,0,40],[4,0,0,Infinity,[0,1000,2000],[1,1.1,1],[[0.42,0,0.58,1],[0.42,0,0.58,1],[-1]]],[5,0,0,Infinity,[0,1000,2000],[1,1.1,1],[[0.42,0,0.58,1],[0.42,0,0.58,1],[-1]]],[1,0,-29],[2,0,-29]],
[[1,0,29],[2,0,29],[12,0,0,Infinity,[0,2000],[0,360],[[0.42,0,0.58,1],[-1]]],[1,0,-29],[2,0,-29],['opacity',0,0,Infinity,[0,500,1500,2000],[0,1,1,1],[[0.42,0,0.58,1],[0.42,0,0.58,1],[0.42,0,0.58,1],[-1]]]],
[['strokeDashoffset',0,0,Infinity,[0,500,900,1500,2000],[0,0,14,14,14],[[0.42,0,1,1],[0.42,0,0.58,1],[0,0,0.58,1],[0,0,0.58,1],[-1]]]],
[['strokeDashoffset',0,0,Infinity,[0,400,800,1500,2000],[0,0,14,14,14],[[0.42,0,1,1],[0.42,0,0.58,1],[0,0,0.58,1],[0,0,0.58,1],[-1]]]],
[['strokeDashoffset',0,0,Infinity,[0,300,700,1500,2000],[0,0,14,14,14],[[0.42,0,1,1],[0.42,0,0.58,1],[0,0,0.58,1],[0,0,0.58,1],[-1]]]],
[['strokeDashoffset',0,0,Infinity,[0,200,600,1500,2000],[0,0,14,14,14],[[0.42,0,1,1],[0.42,0,0.58,1],[0,0,0.58,1],[0,0,0.58,1],[-1]]]],
[['strokeDashoffset',0,0,Infinity,[0,100,500,1500,2000],[0,0,14,14,14],[[0.42,0,1,1],[0.42,0,0.58,1],[0,0,0.58,1],[0,0,0.58,1],[-1]]]],
[['strokeDashoffset',0,0,Infinity,[0,400,1500,2000],[0,14,14,14],[[0.42,0,0.58,1],[0,0,0.58,1],[0,0,0.58,1],[-1]]]],
[['strokeDashoffset',0,0,Infinity,[0,1100,1500,2000],[0,0,14,14],[[0.42,0,1,1],[0.42,0,0.58,1],[0,0,0.58,1],[-1]]]],
[['strokeDashoffset',0,0,Infinity,[0,1000,1400,1500,2000],[0,0,14,14,14],[[0.42,0,1,1],[0.42,0,0.58,1],[0,0,0.58,1],[0,0,0.58,1],[-1]]]],
[['strokeDashoffset',0,0,Infinity,[0,900,1300,1500,2000],[0,0,14,14,14],[[0.42,0,1,1],[0.42,0,0.58,1],[0,0,0.58,1],[0,0,0.58,1],[-1]]]],
[['strokeDashoffset',0,0,Infinity,[0,800,1200,1500,2000],[0,0,14,14,14],[[0.42,0,1,1],[0.42,0,0.58,1],[0,0,0.58,1],[0,0,0.58,1],[-1]]]],
[['strokeDashoffset',0,0,Infinity,[0,700,1100,1500,2000],[0,0,14,14,14],[[0.42,0,1,1],[0.42,0,0.58,1],[0,0,0.58,1],[0,0,0.58,1],[-1]]]],
[['strokeDashoffset',0,0,Infinity,[0,600,1000,1500,2000],[0,0,14,14,14],[[0.42,0,1,1],[0.42,0,0.58,1],[0,0,0.58,1],[0,0,0.58,1],[-1]]]],
[['strokeDashoffset',0,0,Infinity,[0,1000,2000],[204,0,204],[[0.42,0,0.58,1],[0.42,0,0.58,1],[-1]]]]],
end:Infinity};ks._set_data(ks._data);var hr=document.location.href.split('?');(2>hr.length||-1==hr[1].split('&').indexOf('playState=paused'))&&ks.play();]]></script>
</svg>
